<mxfile host="Electron" modified="2023-10-17T13:05:14.832Z" agent="Mozilla/5.0 (Macintosh; Intel Mac OS X 10_14_6) AppleWebKit/537.36 (KHTML, like Gecko) draw.io/21.2.8 Chrome/112.0.5615.165 Electron/24.2.0 Safari/537.36" etag="NsUecSI0w8PvRsvwBOk9" version="21.2.8" type="device" pages="2">
  <diagram name="high-level" id="QtskSrc3Nn6p5GBayLZi">
    <mxGraphModel dx="1976" dy="1876" grid="1" gridSize="10" guides="1" tooltips="1" connect="1" arrows="1" fold="1" page="1" pageScale="1" pageWidth="827" pageHeight="1169" math="0" shadow="0">
      <root>
        <mxCell id="0" />
        <mxCell id="1" parent="0" />
        <mxCell id="Gv7Pen5geAAuK3BI3S1e-61" value="" style="rounded=0;whiteSpace=wrap;html=1;" vertex="1" parent="1">
          <mxGeometry x="-230" y="-50" width="240" height="105" as="geometry" />
        </mxCell>
        <mxCell id="Gv7Pen5geAAuK3BI3S1e-29" value="orchestration&lt;br&gt;domain (nodes)" style="ellipse;shape=cloud;whiteSpace=wrap;html=1;strokeWidth=1;fillColor=#F0F0F0;strokeColor=default;" vertex="1" parent="1">
          <mxGeometry x="40" y="-60" width="220" height="140" as="geometry" />
        </mxCell>
        <mxCell id="Gv7Pen5geAAuK3BI3S1e-27" value="orchestration&lt;br&gt;domain (nodes)" style="ellipse;shape=cloud;whiteSpace=wrap;html=1;strokeWidth=1;fillColor=#F0F0F0;strokeColor=default;" vertex="1" parent="1">
          <mxGeometry x="-30" y="220" width="220" height="140" as="geometry" />
        </mxCell>
        <mxCell id="Gv7Pen5geAAuK3BI3S1e-18" value="" style="rounded=0;whiteSpace=wrap;html=1;dashed=1;" vertex="1" parent="1">
          <mxGeometry x="540" y="70" width="120" height="70" as="geometry" />
        </mxCell>
        <mxCell id="Gv7Pen5geAAuK3BI3S1e-11" value="s01" style="rounded=0;orthogonalLoop=1;jettySize=auto;html=1;exitX=1;exitY=0.25;exitDx=0;exitDy=0;entryX=0;entryY=1;entryDx=0;entryDy=0;endArrow=none;endFill=0;strokeWidth=2;fillColor=#dae8fc;strokeColor=#6c8ebf;" edge="1" parent="1" source="Gv7Pen5geAAuK3BI3S1e-1" target="Gv7Pen5geAAuK3BI3S1e-4">
          <mxGeometry relative="1" as="geometry" />
        </mxCell>
        <mxCell id="Gv7Pen5geAAuK3BI3S1e-14" style="rounded=0;orthogonalLoop=1;jettySize=auto;html=1;exitX=1;exitY=0.75;exitDx=0;exitDy=0;entryX=0;entryY=0.25;entryDx=0;entryDy=0;endArrow=none;endFill=0;strokeWidth=2;fillColor=#dae8fc;strokeColor=#6c8ebf;" edge="1" parent="1" source="Gv7Pen5geAAuK3BI3S1e-1" target="Gv7Pen5geAAuK3BI3S1e-2">
          <mxGeometry relative="1" as="geometry" />
        </mxCell>
        <mxCell id="Gv7Pen5geAAuK3BI3S1e-1" value="" style="rounded=0;whiteSpace=wrap;html=1;strokeWidth=2;" vertex="1" parent="1">
          <mxGeometry x="360" y="240" width="80" height="130" as="geometry" />
        </mxCell>
        <mxCell id="Gv7Pen5geAAuK3BI3S1e-15" style="rounded=0;orthogonalLoop=1;jettySize=auto;html=1;exitX=1;exitY=0.25;exitDx=0;exitDy=0;entryX=0;entryY=0.75;entryDx=0;entryDy=0;endArrow=none;endFill=0;strokeWidth=2;fillColor=#dae8fc;strokeColor=#6c8ebf;" edge="1" parent="1" source="Gv7Pen5geAAuK3BI3S1e-2" target="Gv7Pen5geAAuK3BI3S1e-3">
          <mxGeometry relative="1" as="geometry" />
        </mxCell>
        <mxCell id="Gv7Pen5geAAuK3BI3S1e-2" value="" style="rounded=0;whiteSpace=wrap;html=1;strokeWidth=2;" vertex="1" parent="1">
          <mxGeometry x="480" y="320" width="80" height="130" as="geometry" />
        </mxCell>
        <mxCell id="Gv7Pen5geAAuK3BI3S1e-16" style="rounded=0;orthogonalLoop=1;jettySize=auto;html=1;exitX=0;exitY=0.5;exitDx=0;exitDy=0;entryX=1;entryY=0.5;entryDx=0;entryDy=0;endArrow=none;endFill=0;strokeWidth=2;fillColor=#dae8fc;strokeColor=#6c8ebf;" edge="1" parent="1" source="Gv7Pen5geAAuK3BI3S1e-3" target="Gv7Pen5geAAuK3BI3S1e-1">
          <mxGeometry relative="1" as="geometry" />
        </mxCell>
        <mxCell id="Gv7Pen5geAAuK3BI3S1e-3" value="" style="rounded=0;whiteSpace=wrap;html=1;strokeWidth=2;" vertex="1" parent="1">
          <mxGeometry x="600" y="240" width="80" height="130" as="geometry" />
        </mxCell>
        <mxCell id="Gv7Pen5geAAuK3BI3S1e-12" style="rounded=0;orthogonalLoop=1;jettySize=auto;html=1;exitX=1;exitY=1;exitDx=0;exitDy=0;entryX=0;entryY=0.25;entryDx=0;entryDy=0;endArrow=none;endFill=0;strokeWidth=2;fillColor=#dae8fc;strokeColor=#6c8ebf;" edge="1" parent="1" source="Gv7Pen5geAAuK3BI3S1e-4" target="Gv7Pen5geAAuK3BI3S1e-3">
          <mxGeometry relative="1" as="geometry" />
        </mxCell>
        <mxCell id="Gv7Pen5geAAuK3BI3S1e-13" style="rounded=0;orthogonalLoop=1;jettySize=auto;html=1;exitX=0.5;exitY=1;exitDx=0;exitDy=0;entryX=0.5;entryY=0;entryDx=0;entryDy=0;endArrow=none;endFill=0;strokeWidth=2;fillColor=#dae8fc;strokeColor=#6c8ebf;" edge="1" parent="1" source="Gv7Pen5geAAuK3BI3S1e-4" target="Gv7Pen5geAAuK3BI3S1e-9">
          <mxGeometry relative="1" as="geometry" />
        </mxCell>
        <mxCell id="Gv7Pen5geAAuK3BI3S1e-33" value="s01" style="rounded=0;orthogonalLoop=1;jettySize=auto;html=1;exitX=0;exitY=0.5;exitDx=0;exitDy=0;entryX=1;entryY=0.5;entryDx=0;entryDy=0;endArrow=none;endFill=0;strokeWidth=2;fillColor=#dae8fc;strokeColor=#6c8ebf;" edge="1" parent="1" source="Gv7Pen5geAAuK3BI3S1e-4" target="Gv7Pen5geAAuK3BI3S1e-30">
          <mxGeometry relative="1" as="geometry" />
        </mxCell>
        <mxCell id="Gv7Pen5geAAuK3BI3S1e-4" value="ε-BAL" style="ellipse;whiteSpace=wrap;html=1;strokeWidth=2;" vertex="1" parent="1">
          <mxGeometry x="480" y="120" width="80" height="40" as="geometry" />
        </mxCell>
        <mxCell id="Gv7Pen5geAAuK3BI3S1e-35" style="edgeStyle=orthogonalEdgeStyle;rounded=0;orthogonalLoop=1;jettySize=auto;html=1;exitX=1;exitY=0.5;exitDx=0;exitDy=0;entryX=0.5;entryY=1;entryDx=0;entryDy=0;endArrow=none;endFill=0;" edge="1" parent="1" source="Gv7Pen5geAAuK3BI3S1e-6" target="Gv7Pen5geAAuK3BI3S1e-3">
          <mxGeometry relative="1" as="geometry" />
        </mxCell>
        <mxCell id="Gv7Pen5geAAuK3BI3S1e-36" value="s07" style="edgeStyle=orthogonalEdgeStyle;rounded=0;orthogonalLoop=1;jettySize=auto;html=1;exitX=0.5;exitY=0;exitDx=0;exitDy=0;entryX=0;entryY=0.5;entryDx=0;entryDy=0;endArrow=none;endFill=0;" edge="1" parent="1" source="Gv7Pen5geAAuK3BI3S1e-6" target="Gv7Pen5geAAuK3BI3S1e-1">
          <mxGeometry relative="1" as="geometry">
            <Array as="points">
              <mxPoint x="310" y="305" />
            </Array>
          </mxGeometry>
        </mxCell>
        <mxCell id="Gv7Pen5geAAuK3BI3S1e-37" style="edgeStyle=orthogonalEdgeStyle;rounded=0;orthogonalLoop=1;jettySize=auto;html=1;exitX=1;exitY=0;exitDx=0;exitDy=0;entryX=0;entryY=0.75;entryDx=0;entryDy=0;endArrow=none;endFill=0;" edge="1" parent="1" source="Gv7Pen5geAAuK3BI3S1e-6" target="Gv7Pen5geAAuK3BI3S1e-2">
          <mxGeometry relative="1" as="geometry" />
        </mxCell>
        <mxCell id="Gv7Pen5geAAuK3BI3S1e-6" value="ε-ORC" style="ellipse;whiteSpace=wrap;html=1;strokeWidth=2;" vertex="1" parent="1">
          <mxGeometry x="270" y="450" width="80" height="40" as="geometry" />
        </mxCell>
        <mxCell id="Gv7Pen5geAAuK3BI3S1e-7" value="" style="outlineConnect=0;dashed=0;verticalLabelPosition=bottom;verticalAlign=top;align=center;html=1;shape=mxgraph.aws3.lambda_function;fillColor=#6C8EBF;strokeColor=none;" vertex="1" parent="1">
          <mxGeometry x="371.43" y="270" width="28.57" height="30" as="geometry" />
        </mxCell>
        <mxCell id="Gv7Pen5geAAuK3BI3S1e-8" value="node" style="rounded=0;whiteSpace=wrap;html=1;strokeWidth=2;" vertex="1" parent="1">
          <mxGeometry x="360" y="240" width="80" height="20" as="geometry" />
        </mxCell>
        <mxCell id="Gv7Pen5geAAuK3BI3S1e-9" value="node" style="rounded=0;whiteSpace=wrap;html=1;strokeWidth=2;" vertex="1" parent="1">
          <mxGeometry x="480" y="320" width="80" height="20" as="geometry" />
        </mxCell>
        <mxCell id="Gv7Pen5geAAuK3BI3S1e-10" value="node" style="rounded=0;whiteSpace=wrap;html=1;strokeWidth=2;" vertex="1" parent="1">
          <mxGeometry x="600" y="240" width="80" height="20" as="geometry" />
        </mxCell>
        <mxCell id="Gv7Pen5geAAuK3BI3S1e-71" style="edgeStyle=orthogonalEdgeStyle;rounded=0;orthogonalLoop=1;jettySize=auto;html=1;exitX=0.5;exitY=0;exitDx=0;exitDy=0;exitPerimeter=0;startArrow=classic;startFill=1;fillColor=#dae8fc;strokeColor=#6c8ebf;dashed=1;strokeWidth=2;" edge="1" parent="1" source="Gv7Pen5geAAuK3BI3S1e-17">
          <mxGeometry relative="1" as="geometry">
            <mxPoint x="574" y="20" as="targetPoint" />
          </mxGeometry>
        </mxCell>
        <mxCell id="Gv7Pen5geAAuK3BI3S1e-17" value="" style="outlineConnect=0;dashed=0;verticalLabelPosition=bottom;verticalAlign=top;align=center;html=1;shape=mxgraph.aws3.lambda_function;fillColor=#82B366;strokeColor=#82b366;" vertex="1" parent="1">
          <mxGeometry x="560" y="90" width="28.57" height="30" as="geometry" />
        </mxCell>
        <mxCell id="Gv7Pen5geAAuK3BI3S1e-73" style="edgeStyle=orthogonalEdgeStyle;rounded=0;orthogonalLoop=1;jettySize=auto;html=1;exitX=0.5;exitY=0;exitDx=0;exitDy=0;exitPerimeter=0;startArrow=classic;startFill=1;fillColor=#dae8fc;strokeColor=#6c8ebf;dashed=1;strokeWidth=2;" edge="1" parent="1" source="Gv7Pen5geAAuK3BI3S1e-19">
          <mxGeometry relative="1" as="geometry">
            <mxPoint x="624" y="20" as="targetPoint" />
          </mxGeometry>
        </mxCell>
        <mxCell id="Gv7Pen5geAAuK3BI3S1e-19" value="" style="outlineConnect=0;dashed=0;verticalLabelPosition=bottom;verticalAlign=top;align=center;html=1;shape=mxgraph.aws3.lambda_function;fillColor=#82B366;strokeColor=#82b366;" vertex="1" parent="1">
          <mxGeometry x="610" y="100" width="28.57" height="30" as="geometry" />
        </mxCell>
        <mxCell id="Gv7Pen5geAAuK3BI3S1e-20" value="" style="outlineConnect=0;dashed=0;verticalLabelPosition=bottom;verticalAlign=top;align=center;html=1;shape=mxgraph.aws3.lambda_function;fillColor=#6C8EBF;strokeColor=none;" vertex="1" parent="1">
          <mxGeometry x="400" y="330" width="28.57" height="30" as="geometry" />
        </mxCell>
        <mxCell id="Gv7Pen5geAAuK3BI3S1e-21" value="" style="outlineConnect=0;dashed=0;verticalLabelPosition=bottom;verticalAlign=top;align=center;html=1;shape=mxgraph.aws3.lambda_function;fillColor=#6C8EBF;strokeColor=none;" vertex="1" parent="1">
          <mxGeometry x="520" y="350" width="28.57" height="30" as="geometry" />
        </mxCell>
        <mxCell id="Gv7Pen5geAAuK3BI3S1e-22" value="" style="outlineConnect=0;dashed=0;verticalLabelPosition=bottom;verticalAlign=top;align=center;html=1;shape=mxgraph.aws3.lambda_function;fillColor=#6C8EBF;strokeColor=none;" vertex="1" parent="1">
          <mxGeometry x="638.5699999999999" y="270" width="28.57" height="30" as="geometry" />
        </mxCell>
        <mxCell id="Gv7Pen5geAAuK3BI3S1e-23" value="" style="outlineConnect=0;dashed=0;verticalLabelPosition=bottom;verticalAlign=top;align=center;html=1;shape=mxgraph.aws3.lambda_function;fillColor=#6C8EBF;strokeColor=none;" vertex="1" parent="1">
          <mxGeometry x="609.9999999999999" y="300" width="28.57" height="30" as="geometry" />
        </mxCell>
        <mxCell id="Gv7Pen5geAAuK3BI3S1e-24" value="" style="outlineConnect=0;dashed=0;verticalLabelPosition=bottom;verticalAlign=top;align=center;html=1;shape=mxgraph.aws3.lambda_function;fillColor=#6C8EBF;strokeColor=none;" vertex="1" parent="1">
          <mxGeometry x="638.5699999999999" y="330" width="28.57" height="30" as="geometry" />
        </mxCell>
        <mxCell id="Gv7Pen5geAAuK3BI3S1e-26" value="ε-ORC" style="ellipse;whiteSpace=wrap;html=1;strokeWidth=2;" vertex="1" parent="1">
          <mxGeometry x="40" y="210" width="80" height="40" as="geometry" />
        </mxCell>
        <mxCell id="Gv7Pen5geAAuK3BI3S1e-28" value="ε-ORC" style="ellipse;whiteSpace=wrap;html=1;strokeWidth=2;" vertex="1" parent="1">
          <mxGeometry x="100" y="60" width="80" height="40" as="geometry" />
        </mxCell>
        <mxCell id="Gv7Pen5geAAuK3BI3S1e-30" value="ε-BAL" style="ellipse;whiteSpace=wrap;html=1;strokeWidth=2;" vertex="1" parent="1">
          <mxGeometry x="120" y="240" width="80" height="40" as="geometry" />
        </mxCell>
        <mxCell id="Gv7Pen5geAAuK3BI3S1e-32" style="rounded=0;orthogonalLoop=1;jettySize=auto;html=1;exitX=1;exitY=1;exitDx=0;exitDy=0;entryX=0;entryY=0;entryDx=0;entryDy=0;endArrow=none;endFill=0;strokeWidth=2;fillColor=#dae8fc;strokeColor=#6c8ebf;" edge="1" parent="1" source="Gv7Pen5geAAuK3BI3S1e-31" target="Gv7Pen5geAAuK3BI3S1e-4">
          <mxGeometry relative="1" as="geometry" />
        </mxCell>
        <mxCell id="Gv7Pen5geAAuK3BI3S1e-34" style="rounded=0;orthogonalLoop=1;jettySize=auto;html=1;exitX=0.5;exitY=1;exitDx=0;exitDy=0;entryX=0.5;entryY=0;entryDx=0;entryDy=0;endArrow=none;endFill=0;strokeWidth=2;fillColor=#dae8fc;strokeColor=#6c8ebf;" edge="1" parent="1" source="Gv7Pen5geAAuK3BI3S1e-31" target="Gv7Pen5geAAuK3BI3S1e-30">
          <mxGeometry relative="1" as="geometry" />
        </mxCell>
        <mxCell id="Gv7Pen5geAAuK3BI3S1e-31" value="ε-BAL" style="ellipse;whiteSpace=wrap;html=1;strokeWidth=2;" vertex="1" parent="1">
          <mxGeometry x="190" y="30" width="80" height="40" as="geometry" />
        </mxCell>
        <mxCell id="Gv7Pen5geAAuK3BI3S1e-39" value="s07" style="edgeStyle=orthogonalEdgeStyle;rounded=0;orthogonalLoop=1;jettySize=auto;html=1;exitX=1;exitY=0.5;exitDx=0;exitDy=0;entryX=0;entryY=0.5;entryDx=0;entryDy=0;endArrow=none;endFill=0;" edge="1" parent="1" source="Gv7Pen5geAAuK3BI3S1e-38" target="Gv7Pen5geAAuK3BI3S1e-6">
          <mxGeometry relative="1" as="geometry" />
        </mxCell>
        <mxCell id="Gv7Pen5geAAuK3BI3S1e-40" style="edgeStyle=orthogonalEdgeStyle;rounded=0;orthogonalLoop=1;jettySize=auto;html=1;exitX=0.5;exitY=0;exitDx=0;exitDy=0;entryX=0.5;entryY=0;entryDx=0;entryDy=0;endArrow=none;endFill=0;" edge="1" parent="1" source="Gv7Pen5geAAuK3BI3S1e-38" target="Gv7Pen5geAAuK3BI3S1e-26">
          <mxGeometry relative="1" as="geometry" />
        </mxCell>
        <mxCell id="Gv7Pen5geAAuK3BI3S1e-41" style="edgeStyle=orthogonalEdgeStyle;rounded=0;orthogonalLoop=1;jettySize=auto;html=1;exitX=0;exitY=0;exitDx=0;exitDy=0;entryX=0;entryY=0.5;entryDx=0;entryDy=0;endArrow=none;endFill=0;" edge="1" parent="1" source="Gv7Pen5geAAuK3BI3S1e-38" target="Gv7Pen5geAAuK3BI3S1e-28">
          <mxGeometry relative="1" as="geometry">
            <Array as="points">
              <mxPoint x="-80" y="456" />
              <mxPoint x="-80" y="80" />
            </Array>
          </mxGeometry>
        </mxCell>
        <mxCell id="Gv7Pen5geAAuK3BI3S1e-43" value="s04" style="edgeStyle=orthogonalEdgeStyle;rounded=0;orthogonalLoop=1;jettySize=auto;html=1;exitX=0;exitY=0.5;exitDx=0;exitDy=0;endArrow=none;endFill=0;" edge="1" parent="1" source="Gv7Pen5geAAuK3BI3S1e-38" target="Gv7Pen5geAAuK3BI3S1e-42">
          <mxGeometry relative="1" as="geometry" />
        </mxCell>
        <mxCell id="Gv7Pen5geAAuK3BI3S1e-38" value="ε-CON" style="ellipse;whiteSpace=wrap;html=1;strokeWidth=2;" vertex="1" parent="1">
          <mxGeometry x="-90" y="450" width="80" height="40" as="geometry" />
        </mxCell>
        <mxCell id="Gv7Pen5geAAuK3BI3S1e-42" value="user" style="shape=umlActor;verticalLabelPosition=bottom;verticalAlign=top;html=1;outlineConnect=0;" vertex="1" parent="1">
          <mxGeometry x="-200" y="440" width="30" height="60" as="geometry" />
        </mxCell>
        <mxCell id="Gv7Pen5geAAuK3BI3S1e-57" value="" style="outlineConnect=0;dashed=0;verticalLabelPosition=bottom;verticalAlign=top;align=center;html=1;shape=mxgraph.aws3.lambda_function;fillColor=#6C8EBF;strokeColor=none;" vertex="1" parent="1">
          <mxGeometry x="-220" y="-35" width="28.57" height="30" as="geometry" />
        </mxCell>
        <mxCell id="Gv7Pen5geAAuK3BI3S1e-58" value="function instances" style="text;html=1;strokeColor=none;fillColor=none;align=center;verticalAlign=middle;whiteSpace=wrap;rounded=0;" vertex="1" parent="1">
          <mxGeometry x="-180" y="-35" width="60" height="30" as="geometry" />
        </mxCell>
        <mxCell id="Gv7Pen5geAAuK3BI3S1e-59" value="" style="outlineConnect=0;dashed=0;verticalLabelPosition=bottom;verticalAlign=top;align=center;html=1;shape=mxgraph.aws3.lambda_function;fillColor=#82B366;strokeColor=#82b366;" vertex="1" parent="1">
          <mxGeometry x="-98.56999999999994" y="-35" width="28.57" height="30" as="geometry" />
        </mxCell>
        <mxCell id="Gv7Pen5geAAuK3BI3S1e-60" value="resource instances" style="text;html=1;strokeColor=none;fillColor=none;align=center;verticalAlign=middle;whiteSpace=wrap;rounded=0;" vertex="1" parent="1">
          <mxGeometry x="-60" y="-35" width="60" height="30" as="geometry" />
        </mxCell>
        <mxCell id="Gv7Pen5geAAuK3BI3S1e-62" style="rounded=0;orthogonalLoop=1;jettySize=auto;html=1;endArrow=none;endFill=0;strokeWidth=2;fillColor=#dae8fc;strokeColor=#6c8ebf;" edge="1" parent="1">
          <mxGeometry relative="1" as="geometry">
            <mxPoint x="-220" y="25" as="sourcePoint" />
            <mxPoint x="-190" y="25" as="targetPoint" />
          </mxGeometry>
        </mxCell>
        <mxCell id="Gv7Pen5geAAuK3BI3S1e-63" value="data plane" style="text;html=1;strokeColor=none;fillColor=none;align=center;verticalAlign=middle;whiteSpace=wrap;rounded=0;" vertex="1" parent="1">
          <mxGeometry x="-180" y="5" width="60" height="40" as="geometry" />
        </mxCell>
        <mxCell id="Gv7Pen5geAAuK3BI3S1e-64" value="ctrl/mgmt planes" style="text;html=1;strokeColor=none;fillColor=none;align=center;verticalAlign=middle;whiteSpace=wrap;rounded=0;" vertex="1" parent="1">
          <mxGeometry x="-60" y="5" width="60" height="40" as="geometry" />
        </mxCell>
        <mxCell id="Gv7Pen5geAAuK3BI3S1e-67" style="rounded=0;orthogonalLoop=1;jettySize=auto;html=1;endArrow=none;endFill=0;strokeWidth=1;fillColor=#dae8fc;strokeColor=default;" edge="1" parent="1">
          <mxGeometry relative="1" as="geometry">
            <mxPoint x="-100" y="25" as="sourcePoint" />
            <mxPoint x="-70" y="25" as="targetPoint" />
          </mxGeometry>
        </mxCell>
        <mxCell id="Gv7Pen5geAAuK3BI3S1e-74" value="external environment" style="text;html=1;strokeColor=none;fillColor=none;align=center;verticalAlign=middle;whiteSpace=wrap;rounded=0;" vertex="1" parent="1">
          <mxGeometry x="540" y="-12.5" width="120" height="30" as="geometry" />
        </mxCell>
      </root>
    </mxGraphModel>
  </diagram>
  <diagram id="v4lIAbRX9J4bzTp9PrEd" name="workflows">
    <mxGraphModel dx="1379" dy="848" grid="1" gridSize="10" guides="1" tooltips="1" connect="1" arrows="1" fold="1" page="1" pageScale="1" pageWidth="827" pageHeight="1169" math="1" shadow="0">
      <root>
        <mxCell id="0" />
        <mxCell id="1" parent="0" />
        <mxCell id="gjctJKJ0kyJtfT_LaPNr-1" value="$$f()$$" style="rounded=0;whiteSpace=wrap;html=1;" vertex="1" parent="1">
          <mxGeometry x="120" y="80" width="80" height="40" as="geometry" />
        </mxCell>
        <mxCell id="gjctJKJ0kyJtfT_LaPNr-4" style="edgeStyle=orthogonalEdgeStyle;rounded=0;orthogonalLoop=1;jettySize=auto;html=1;exitX=1;exitY=0.5;exitDx=0;exitDy=0;entryX=0;entryY=0.5;entryDx=0;entryDy=0;" edge="1" parent="1" source="gjctJKJ0kyJtfT_LaPNr-2" target="gjctJKJ0kyJtfT_LaPNr-3">
          <mxGeometry relative="1" as="geometry" />
        </mxCell>
        <mxCell id="gjctJKJ0kyJtfT_LaPNr-2" value="$$f_1()$$" style="rounded=0;whiteSpace=wrap;html=1;" vertex="1" parent="1">
          <mxGeometry x="120" y="160" width="80" height="40" as="geometry" />
        </mxCell>
        <mxCell id="gjctJKJ0kyJtfT_LaPNr-6" style="edgeStyle=orthogonalEdgeStyle;rounded=0;orthogonalLoop=1;jettySize=auto;html=1;exitX=1;exitY=0.5;exitDx=0;exitDy=0;entryX=0;entryY=0.5;entryDx=0;entryDy=0;" edge="1" parent="1" source="gjctJKJ0kyJtfT_LaPNr-3" target="gjctJKJ0kyJtfT_LaPNr-5">
          <mxGeometry relative="1" as="geometry" />
        </mxCell>
        <mxCell id="gjctJKJ0kyJtfT_LaPNr-3" value="$$f_2()$$" style="rounded=0;whiteSpace=wrap;html=1;" vertex="1" parent="1">
          <mxGeometry x="240" y="160" width="80" height="40" as="geometry" />
        </mxCell>
        <mxCell id="gjctJKJ0kyJtfT_LaPNr-5" value="$$f_3()$$" style="rounded=0;whiteSpace=wrap;html=1;" vertex="1" parent="1">
          <mxGeometry x="360" y="160" width="80" height="40" as="geometry" />
        </mxCell>
        <mxCell id="gjctJKJ0kyJtfT_LaPNr-10" style="edgeStyle=orthogonalEdgeStyle;rounded=0;orthogonalLoop=1;jettySize=auto;html=1;exitX=0.5;exitY=1;exitDx=0;exitDy=0;entryX=0;entryY=0.5;entryDx=0;entryDy=0;" edge="1" parent="1" source="gjctJKJ0kyJtfT_LaPNr-7" target="gjctJKJ0kyJtfT_LaPNr-9">
          <mxGeometry relative="1" as="geometry" />
        </mxCell>
        <mxCell id="gjctJKJ0kyJtfT_LaPNr-11" style="edgeStyle=orthogonalEdgeStyle;rounded=0;orthogonalLoop=1;jettySize=auto;html=1;exitX=1;exitY=0.5;exitDx=0;exitDy=0;entryX=0;entryY=0.5;entryDx=0;entryDy=0;" edge="1" parent="1" source="gjctJKJ0kyJtfT_LaPNr-7" target="gjctJKJ0kyJtfT_LaPNr-8">
          <mxGeometry relative="1" as="geometry" />
        </mxCell>
        <mxCell id="gjctJKJ0kyJtfT_LaPNr-7" value="$$f_1()$$" style="rounded=0;whiteSpace=wrap;html=1;" vertex="1" parent="1">
          <mxGeometry x="120" y="240" width="80" height="40" as="geometry" />
        </mxCell>
        <mxCell id="gjctJKJ0kyJtfT_LaPNr-8" value="$$f_2()$$" style="rounded=0;whiteSpace=wrap;html=1;" vertex="1" parent="1">
          <mxGeometry x="280" y="240" width="80" height="40" as="geometry" />
        </mxCell>
        <mxCell id="gjctJKJ0kyJtfT_LaPNr-12" style="edgeStyle=orthogonalEdgeStyle;rounded=0;orthogonalLoop=1;jettySize=auto;html=1;exitX=1;exitY=0.5;exitDx=0;exitDy=0;entryX=0.5;entryY=1;entryDx=0;entryDy=0;" edge="1" parent="1" source="gjctJKJ0kyJtfT_LaPNr-9" target="gjctJKJ0kyJtfT_LaPNr-8">
          <mxGeometry relative="1" as="geometry" />
        </mxCell>
        <mxCell id="gjctJKJ0kyJtfT_LaPNr-9" value="$$f_3()$$" style="rounded=0;whiteSpace=wrap;html=1;" vertex="1" parent="1">
          <mxGeometry x="200" y="300" width="80" height="40" as="geometry" />
        </mxCell>
        <mxCell id="gjctJKJ0kyJtfT_LaPNr-15" style="edgeStyle=orthogonalEdgeStyle;rounded=0;orthogonalLoop=1;jettySize=auto;html=1;exitX=0.5;exitY=0;exitDx=0;exitDy=0;entryX=0.5;entryY=0;entryDx=0;entryDy=0;" edge="1" parent="1" source="gjctJKJ0kyJtfT_LaPNr-13" target="gjctJKJ0kyJtfT_LaPNr-14">
          <mxGeometry relative="1" as="geometry" />
        </mxCell>
        <mxCell id="gjctJKJ0kyJtfT_LaPNr-13" value="$$f_1()$$" style="rounded=0;whiteSpace=wrap;html=1;" vertex="1" parent="1">
          <mxGeometry x="120" y="400" width="80" height="40" as="geometry" />
        </mxCell>
        <mxCell id="gjctJKJ0kyJtfT_LaPNr-16" style="edgeStyle=orthogonalEdgeStyle;rounded=0;orthogonalLoop=1;jettySize=auto;html=1;exitX=0.5;exitY=1;exitDx=0;exitDy=0;entryX=0.5;entryY=1;entryDx=0;entryDy=0;" edge="1" parent="1" source="gjctJKJ0kyJtfT_LaPNr-14" target="gjctJKJ0kyJtfT_LaPNr-13">
          <mxGeometry relative="1" as="geometry" />
        </mxCell>
        <mxCell id="gjctJKJ0kyJtfT_LaPNr-14" value="$$f_2()$$" style="rounded=0;whiteSpace=wrap;html=1;" vertex="1" parent="1">
          <mxGeometry x="240" y="400" width="80" height="40" as="geometry" />
        </mxCell>
        <mxCell id="gjctJKJ0kyJtfT_LaPNr-17" value="single function" style="text;html=1;strokeColor=none;fillColor=none;align=center;verticalAlign=middle;whiteSpace=wrap;rounded=0;" vertex="1" parent="1">
          <mxGeometry x="10" y="80" width="80" height="40" as="geometry" />
        </mxCell>
        <mxCell id="gjctJKJ0kyJtfT_LaPNr-18" value="function chain" style="text;html=1;strokeColor=none;fillColor=none;align=center;verticalAlign=middle;whiteSpace=wrap;rounded=0;" vertex="1" parent="1">
          <mxGeometry x="10" y="160" width="80" height="40" as="geometry" />
        </mxCell>
        <mxCell id="gjctJKJ0kyJtfT_LaPNr-19" value="directed acyclic graph" style="text;html=1;strokeColor=none;fillColor=none;align=center;verticalAlign=middle;whiteSpace=wrap;rounded=0;" vertex="1" parent="1">
          <mxGeometry x="10" y="240" width="80" height="40" as="geometry" />
        </mxCell>
        <mxCell id="gjctJKJ0kyJtfT_LaPNr-20" value="arbitrary graph" style="text;html=1;strokeColor=none;fillColor=none;align=center;verticalAlign=middle;whiteSpace=wrap;rounded=0;" vertex="1" parent="1">
          <mxGeometry x="10" y="400" width="80" height="40" as="geometry" />
        </mxCell>
      </root>
    </mxGraphModel>
  </diagram>
</mxfile>
